<?xml version="1.0" encoding="utf-8"?>
<!-- Generator: Adobe Illustrator 23.0.3, SVG Export Plug-In . SVG Version: 6.00 Build 0)  -->
<svg version="1.1" xmlns="http://www.w3.org/2000/svg" xmlns:xlink="http://www.w3.org/1999/xlink" x="0px" y="0px"
	 viewBox="0 0 612 792" style="enable-background:new 0 0 612 792;" xml:space="preserve">
<style type="text/css">
	.st0{fill:#C97936;}
	.st1{fill:#010101;}
	.st2{fill:#F6F6F6;}
	.st3{fill:#DC2F34;}
</style>
<g id="Layer_5">
	<path class="st0" d="M562.5,464.2c-1.1-16.2-8.3-28.7-21.6-38.8c-13-9.8-29.5-15.6-46.2-16.9c-11.5-0.9-23.8-2.2-35.3-2.8
		c0,0,0.1-0.1,0.1-0.1c-0.9-0.1-1.9-0.2-2.8-0.3c-4.3-0.4-8.5-0.8-12.8-1.4c-4.2-0.6-8.3-1.4-12.5-1.8c-3-0.2-6.3-0.2-9-1.9
		c0,0,0,0,0,0c39.4-29.6,65-76.7,65-129.8c0-16.3-2.4-32.1-6.9-47c-0.4,0.2-0.7,0.4-1.1,0.5c-1.8,0.6-3.9,0.9-6.6,1
		c-3.6,0.1-7.1-0.1-10.4-0.8c-2.1-0.5-3.9-1.1-5.4-1.9c-0.8-0.4-1.4-0.9-1.9-1.3c-0.4-0.4-0.7-0.7-0.9-1c-0.2-0.3-0.3-0.5-0.4-0.8
		c-0.1-0.3-0.1-0.6-0.1-0.8c0-0.3,0-0.7,0.1-1.1c0.2-0.7,0.4-1.3,0.7-1.8l0.2-0.4c1.1,0,2.2-0.2,3.4-0.4c1.5-0.3,2.4-1.7,2.1-3.2
		c-0.1-0.7-0.5-1.3-1.2-1.8c-0.6-0.4-1.4-0.5-2-0.4c-0.8,0.2-1.5,0.3-2.2,0.3c-1.1,0-2.2-0.1-3.3-0.3c-1.2-0.3-2.4-0.7-3.5-1.3
		c-1.1-0.6-2.2-1.4-3.1-2.3c-0.9-0.9-1.7-1.8-2.4-2.9c-0.8-1.3-1.3-2.5-1.8-3.8c-0.3-0.8-0.4-1.5-0.5-2.3c-0.2-1.1-1-2.1-2.1-2.5
		c-0.2-0.1-0.4-0.1-0.8-0.2c-1.5-0.1-2.9,0.8-3.3,2.2c-0.1,0.5-0.3,0.9-0.4,1.4l-0.1,0.5c-0.1,0.5-0.3,1.1-0.5,1.6
		c-0.3,1-0.8,2-1.3,3.1c-0.7,1.3-1.6,2.5-2.5,3.6c-0.9,1-2,1.9-3.1,2.7c-1.4,0.9-2.9,1.6-4.5,2.2c-2,0.6-4.1,1-6.3,1.2
		c-2.5,0.1-5-0.1-7.4-0.6c-2.9-0.7-5.6-1.7-8.2-3c-2.1-1.2-4.1-2.6-5.8-4.1c-1.5-1.4-2.9-3-4-4.7c-1-1.6-1.8-3.3-2.5-5.2l-0.1-0.2
		c-0.3-0.6-0.7-1-1.2-1.4c-0.8-0.6-1.9-0.8-2.9-0.6c-0.9,0.2-1.7,0.6-2.2,1.3c-0.5,0.4-0.8,0.9-1,1.4c-0.3,0.9-0.7,1.9-1.2,2.8
		c-0.6,1.2-1.4,2.2-2.1,3.1c-0.9,0.9-1.8,1.7-2.8,2.4c-1.1,0.6-2.2,1.2-3.3,1.5c-1.6,0.5-3.2,0.8-4.8,0.9c-2.2,0.1-4.5-0.1-6.8-0.6
		c-2.6-0.6-5.2-1.5-7.6-2.8c-2.3-1.3-4.3-2.6-6-4.1c-0.8-0.7-1.9-0.8-2.8-0.7c-0.9,0.2-1.6,0.7-2.1,1.4c-2,2.8-3.9,5.2-5.8,7.4
		c-3,3.3-6.2,6.1-9.6,8.3c0,0-0.1,0.1-0.2,0.1l-0.2,0.1c-2.4,1.5-4.7,2.6-7,3.4c-2,0.6-4,1-5.9,1.1c-1.9,0.1-3.8-0.1-5.6-0.5
		c-1.6-0.4-3.2-1-4.8-1.7v-0.6l-1.1,0c-1.9-1-3.6-2.2-4.9-3.4c-0.2-0.2-0.5-0.5-0.7-0.7c-0.3-0.4-0.7-0.7-1-1.1
		c-1-0.9-2.4-1.2-3.4-1.4c-0.5-0.1-1.1-0.1-1.6-0.2l-1.4-0.1c-0.8-0.1-1.7-0.1-2.5-0.1c-1.4,0-2.8,0.1-4.2,0.2
		c-0.6,0.1-1.2,0.1-1.7,0.1c-1.1,0-2.1,0-2.9-0.2c-0.7-0.2-1.3-0.4-1.9-0.7c-0.5-0.3-0.9-0.5-1.3-0.8c-0.8-0.6-1.8-0.8-2.8-0.6
		c-1.2,0.2-2.1,0.9-2.7,2.3c0,0,0,0.1-0.1,0.1c-0.5,0.9-1,1.7-1.6,2.3c-0.7,0.7-1.3,1.2-2,1.7c-0.9,0.6-1.9,1-2.8,1.3
		c-1,0.3-2.1,0.5-3.1,0.6c-1.2,0-2.3-0.1-3.3-0.3c-1.2-0.3-2.1-0.7-3.1-1.2c-0.2-0.1-0.4-0.1-0.6-0.2c-0.1,0-0.1-0.1-0.2-0.1
		c-0.3-0.1-0.6-0.2-0.8-0.2c-0.9-0.1-1.8,0.3-2.5,0.9c-0.6,0.6-0.9,1.3-0.9,2.1c0,1.8-0.1,3.4-0.4,4.8c-0.3,1.2-0.7,2.4-1.2,3.4
		c-0.6,1-1.2,1.8-1.8,2.6c-0.8,0.8-1.7,1.6-2.6,2.2c-1.2,0.7-2.5,1.4-4,1.9c-2.4,0.8-5.1,1.2-7.9,1.4c-3.8,0.1-7.7-0.2-11.5-1
		c-3.4-0.8-6.3-1.8-8.7-3c-0.2-0.1-0.3-0.2-0.5-0.3c-0.5-0.3-1.3-0.6-2.3-0.4c-1.1,0.2-2,0.9-2.5,2c-1.2,2.9-2.5,5.8-3.9,8.5
		c-2.1,4-4.3,7.3-6.7,9.9c-1.5,1.6-3.2,3.1-5,4.2c-1.8,1.2-3.8,2.1-5.8,2.8c-2.4,0.8-4.9,1.2-7.2,1.4c-1.6,0-3.2-0.1-4.7-0.4
		c-1.5-0.4-2.8-0.8-4-1.4c-0.6-0.3-1.2-0.7-1.7-1c-0.5,5-0.7,10.1-0.7,15.2c0,48.3,21.1,91.6,54.6,121.3c-19.8,3.9-40.1,6.3-60.2,8
		c-1.5,0.1-3,0.2-4.6,0.3c-11.8,0.7-23.3,3.5-33.3,8.5c-11.9,5.9-21.6,14.6-26.5,26.2c-6.8,16.1-5.7,31.8-0.4,47.6
		c2,6,6,10.5,10.9,14.3c6.5,5,14.3,7.4,22.2,9.2c7.2,1.6,14.5,1.3,21.8,1c4.9-0.2,9.7-1,14.5-1.5c3.8-0.3,7.6-1,11.3-1.3
		c11.1-1.1,22.1-2.1,33.3-1.5c13.4,0.7,18.6,8.1,16.9,21.5c-0.9,7.1-3.6,13.8-6.4,21.3c-3.7,9.8-8.1,19-11.4,29.9
		c-5.2,17.4-11.1,35.3-15.4,53.7c-3.5,14.9-8.1,31.3-15.1,45c-4.6,9-9.8,18.1-13.7,26.6c-4.4,9.5-8.8,17.8-11.1,27.3
		c-2.4,10.1-0.1,16.7,7.4,24.1c6.4,6.3,15.4,10.3,24.5,13.3c16.7,5.6,36.5,7.2,53.7,6.3c11.8-0.6,22.7-4.3,31.8-8.7
		c9.6-4.6,15.7-13.8,18.7-20.7c6.3-14.8,1.9-22.4,9-35.6c6.5-12.1,27.1-18.3,38.5-18.6c12.4-0.4,29.4,13.7,31.4,16.1
		c14.3,17.2,8,29.2,18.7,45.9c4.1,6.5,10.2,13.7,17.4,17.9c19,11.1,40.5,12.1,61.7,8c19.5-3.7,39.1-11.9,52.3-26.8
		c9.5-10.7,11.9-20.3,6.8-33.5c-4-10.4-11.4-18-18.9-26.6c-5.3-6.1-12.6-12.1-18.4-18.8c-7.2-8.4-14.2-18.7-18.4-29.2
		c-2.8-7-5.7-16-7.8-22.6c-6.9-21.6-17.1-42.5-24.8-62.8c-3.8-9.9-5.7-17.2-4.7-26.5c1-9.7,6.4-14,15.8-15.6
		c7.4-1.2,15.7-0.2,24.1,0.2c16.2,0.9,33.6,2.8,49.9,3.1c12.7,0.2,23.5-4.7,31.8-14.1c5-5.6,7.2-12.5,9.9-19.2
		C561.3,476.9,563,471.1,562.5,464.2z M154.1,421.6c1.4,2,3.9,2.4,5.8,3.8c2.8,2.1,6.3,3.3,7.8,6.8c2.7,6.3,0.7,11.3-3.7,16.7
		c-2.9,3.6-7.8,6.4-11.7,9c-1.4,0.9-3.1,2.1-4,3.2c-1.9,2.2-2.7,4.2-1.1,6.6c1.6,2.4,3.9,3.4,6.4,4.7c2.9,1.5,5.8,2.7,8.2,5.2
		c2.4,2.6,3.7,5.1,3.1,8.9c-0.4,2.9-2,5.6-4.2,7.8c-2.8,2.8-6.3,4.9-9.8,6.7c-1.2,0.6-2.5,1.3-3.8,1.7c-3,0.9-6.3,0.7-6.8-3.1
		c-0.4-3,1.9-5.6,4.6-7c2.2-1.1,5.3-2.3,7.3-3.7c1.1-0.8,1.3-1.3,0.6-2.2c-1.6-1.9-3.8-2.5-6-3.8c-4.4-2.6-8.2-4.1-11.2-9
		c-3-4.8-1.8-11.5,1.8-16.3c3.2-4.3,7.7-7.4,12.2-10.4c2.4-1.6,4.8-3.3,6.4-5.6c0.8-1.1,0.7-1.9,0-2.8c-1.5-2-3.9-2.5-5.8-3.9
		c-3.1-2.2-6.4-3.4-8-7.2c-2.7-6.5-1-11.8,4.1-17.1c4.1-4.2,10.4-7.4,16-9.4c2.7-1,5.6-0.6,7,1.8c1.6,2.7,0.3,5.2-1.9,7.1
		c-1.4,1.2-3.7,2-5.4,2.7c-2.6,1.1-5.3,2.7-7.2,4.5C153.2,419,153,420,154.1,421.6z M287.6,686.6c-2.7,3.1-2.9,6.3-7.3,8
		c-5.4,2-10.6-0.2-14.6-4.9c-2.9-3.4-5.4-8-6.8-12.4c-0.9-2.8-2-5.8-3.7-8.1c-1.6-2.3-3.1-3.1-5.8-2.4c-2.3,0.6-3.6,2.3-5.6,3.7
		c-4.1,2.7-6.3,6.2-11.9,6.2c-7.5-0.1-12.7-4.2-15.9-11.3c-1.2-2.8-2.1-6.5-3.2-9.4c-0.1-0.3-0.2-0.7-0.3-0.9
		c-1.8-3.2-3.8-4.4-7.1-2.3c-2.1,1.4-3.6,3.8-5.2,5.6c-2.4,2.7-5.3,4.4-8.4,1.8c-3.1-2.6-3.5-6.5-1.2-9.9
		c3.5-5.3,6.9-10.1,13.6-11.9c8.3-2.2,12.4,1.4,16.6,8.3c2.1,3.6,3,7.2,4.3,11c0.7,2.1,1.3,4.2,2.6,6c0.7,0.9,1.5,1.3,2.6,1
		c2.5-0.6,3.8-2.4,5.8-3.8c3.6-2.3,5.9-5,10.6-5.5c8.6-1,13.4,3,17.8,10.2c0.3,0.5,0.5,1.2,0.8,1.7c1.5,2.9,2.8,6.1,3.8,9.2
		c0.7,2.3,1.6,4.8,2.7,6.6c1.1,1.8,1.4,2,3,0.9c1.4-1,2-2.6,3.3-3.9c1.7-1.6,3.6-1.7,5.7-0.5c2,1.1,3.5,3,3.9,5.3
		C287.8,685.6,287.9,686.2,287.6,686.6z M323.8,596.5c-11.5-0.7-23.3-8-23.5-20.8c-0.2-12.7,12.3-19.6,23.9-19.4
		c11.5,1.3,22.7,9.2,22.6,21.7C346.8,590,335.1,597.1,323.8,596.5z M325.4,525.5c-12.4-0.6-22.4-9.2-22.4-21.7
		c0.1-12.7,11.5-20.9,23.5-20.2c12,0.7,22,9.9,21.9,22.2C348.4,519.2,337.7,526.1,325.4,525.5z M429.5,676.9
		c0.9-1.6,1.1-3.5,1.6-5.4c1.2-4.2,1.3-8.2,4-12c4.7-6.9,9.5-8.6,17.5-5.5c5.8,2.2,9.6,6.4,13.4,11c2.3,2.8,2,6.6-0.7,8.9
		c-2.7,2.3-5.8,1.6-8.3-0.8c-2-2.1-3.8-4.6-6.3-6.2c-0.9-0.6-1.8-1.1-2.7-1.2c-1.4-0.2-2.4,0-3.2,1.2c-1.5,2.2-1.7,4.7-2.4,7.2
		c-1.1,3.9-2.1,7.6-4.7,11c-4.9,6.4-9.1,7.7-16.6,5.1c-4.1-1.4-6.2-3.9-9.4-6.1c-1.6-1.1-2.7-2.5-4.5-3c-3-0.9-4.6-0.2-6.3,2.5
		c-1.5,2.5-2.1,5.6-2.8,8.6c-0.8,3.6-2.3,7.4-4.3,10.5c-5,7.9-10.1,10.9-18.2,5.5c-2.9-1.9-3.6-3.6-5.3-6.3c-1.6-2.5,0-5.1,2-7
		c2-1.8,4.8-2,6.8-0.2c1.6,1.5,2.3,3.2,4.1,4.4c0.9,0.6,1.3,0.4,1.9-0.7c1.4-2.3,1.9-4.8,2.6-7.5c1.2-5,2-9.1,5.3-13.7
		c5.5-7.7,9.9-9.8,19.3-6.8c3.1,1,4.5,2.8,6.8,4.5c1.9,1.3,3.5,3,5.6,3.7C427.2,679.3,428.3,678.9,429.5,676.9z M519.3,482.7
		c-2.2,4.6-5.6,6-9.2,8.7c-2,1.5-4.3,2.3-5.9,4.1c-1.6,1.8-1,2.3,1.1,3.4c1.7,0.9,4.3,1.6,6.3,2.3c2.4,0.9,4.4,2.5,5,5.1
		c0.5,2.3-0.2,4-2.2,5.2c-1.4,0.9-3,0.6-4.6,0.1c-1.4-0.4-3-0.9-4.4-1.5c-2.9-1.2-5.8-2.5-8.2-4.5c-5.6-4.7-7.7-8.9-4.5-15.4
		c2.1-4.3,5.3-5.4,8.7-7.9c2.4-1.8,5.1-2.7,6.7-5.3c1.9-3.1,1-5.1-1.7-7.5c-1.9-1.8-5.1-3-7.5-4.5c-3.1-2-6.7-4.2-8.9-7
		c-4.4-5.7-5.6-11.1-2-17.3c1.7-2.9,4.6-4,7.1-5.9c1.4-1.1,3.1-1.8,4.1-3.4c1.3-1.9,0.9-3.1-0.9-4.7c-2.4-2.1-6.4-3.6-9.1-5
		c-3.2-1.6-6-3.8-4.8-7.4c1.1-3.4,4.3-3.8,7.8-2.5c5.2,1.9,10.8,4.6,15,8.8c5.7,5.9,7.1,10.7,2.9,17.8c-2,3.4-4.8,4.4-7.6,6.6
		c-1.4,1.1-2.9,1.6-3.9,3c-1.2,1.9-1,2.9,0.7,4.6c1.6,1.7,4,2.9,6.1,4.1c3.4,1.9,7,3.7,9.7,6.6C521.3,469.8,523,474.8,519.3,482.7z"
		/>
</g>
<g id="Layer_4">
	<g>
		<path class="st1" d="M313.3,340.7C313.2,340.6,313.2,340.6,313.3,340.7c-9-3.9-16.4-11.6-21-21.9c-3.9-8.8-5-14-5.4-24.4
			c-0.1-1.7,1.3-3.1,2.9-3.2c1.7-0.1,3.1,1.3,3.2,2.9c0.3,8.9,1.1,13.6,4.9,22.2c3.9,8.7,10.3,15.6,17.7,18.8c0,0,0,0,0.1,0
			c11.1,4.7,25.4,1.5,34.8-7.8c9.2-9.2,13.1-19.6,12.1-32.5c-0.1-1.7,1.1-3.2,2.8-3.3c1.7-0.1,3.2,1.1,3.3,2.8
			c1.1,14.7-3.5,26.9-13.9,37.3C343.7,342.6,326.6,346.4,313.3,340.7z"/>
		<path class="st1" d="M395.9,252c-7.8,0.1-14,9.1-13.9,20.1c0.1,11,6.6,19.9,14.4,19.8c7.8-0.1,14-9.1,13.9-20.1
			C410.2,260.7,403.7,251.9,395.9,252z M392.4,272.7c-3.7,0-6.7-3.5-6.7-8c-0.1-4.5,2.9-8.1,6.5-8.2c3.7,0,6.7,3.5,6.7,8
			C399,269,396.1,272.7,392.4,272.7z"/>
		<path class="st1" d="M258.7,253.7c-7.8,0.1-14,9.1-13.9,20.1c0.1,11,6.6,19.9,14.4,19.8c7.8-0.1,14-9.1,13.9-20.1
			C273,262.5,266.5,253.6,258.7,253.7z M255.5,274.5c-3.7,0-6.7-3.5-6.7-8c-0.1-4.5,2.9-8.1,6.5-8.2c3.7,0,6.7,3.5,6.7,8
			C262.1,270.8,259.2,274.4,255.5,274.5z"/>
	</g>
</g>
<g id="Layer_3">
	<g>
		<g>
			<path class="st2" d="M398.9,264.6c0.1,4.5-2.9,8.1-6.5,8.2c-3.7,0-6.7-3.5-6.7-8c-0.1-4.5,2.9-8.1,6.5-8.2
				C395.9,256.5,398.9,260.1,398.9,264.6z"/>
			<path class="st2" d="M262.1,266.3c0.1,4.5-2.9,8.1-6.5,8.2c-3.7,0-6.7-3.5-6.7-8c-0.1-4.5,2.9-8.1,6.5-8.2
				C259,258.3,262,261.8,262.1,266.3z"/>
		</g>
		<g>
			<path class="st2" d="M287.6,686.6c-2.7,3.1-2.9,6.3-7.3,8c-5.4,2-10.6-0.2-14.6-4.9c-2.9-3.4-5.4-8-6.8-12.4
				c-0.9-2.8-2-5.8-3.7-8.1c-1.6-2.3-3.1-3.1-5.8-2.4c-2.3,0.6-3.6,2.3-5.6,3.7c-4.1,2.7-6.3,6.2-11.9,6.2
				c-7.5-0.1-12.7-4.2-15.9-11.3c-1.2-2.8-2.1-6.5-3.2-9.4c-0.1-0.3-0.2-0.7-0.3-0.9c-1.8-3.2-3.8-4.4-7.1-2.3
				c-2.1,1.4-3.6,3.8-5.2,5.6c-2.4,2.7-5.3,4.4-8.4,1.8c-3.1-2.6-3.5-6.5-1.2-9.9c3.5-5.3,6.9-10.1,13.6-11.9
				c8.3-2.2,12.4,1.4,16.6,8.3c2.1,3.6,3,7.2,4.3,11c0.7,2.1,1.3,4.2,2.6,6c0.7,0.9,1.5,1.3,2.6,1c2.5-0.6,3.8-2.4,5.8-3.8
				c3.6-2.3,5.9-5,10.6-5.5c8.6-1,13.4,3,17.8,10.2c0.3,0.5,0.5,1.2,0.8,1.7c1.5,2.9,2.8,6.1,3.8,9.2c0.7,2.3,1.6,4.8,2.7,6.6
				c1.1,1.8,1.4,2,3,0.9c1.4-1,2-2.6,3.3-3.9c1.7-1.6,3.6-1.7,5.7-0.5c2,1.1,3.5,3,3.9,5.3C287.8,685.6,287.9,686.2,287.6,686.6z"/>
			<path class="st2" d="M465.3,673.9c-2.7,2.3-5.8,1.6-8.3-0.8c-2-2.1-3.8-4.6-6.3-6.2c-0.9-0.6-1.8-1.1-2.7-1.2
				c-1.4-0.2-2.4,0-3.2,1.2c-1.5,2.2-1.7,4.7-2.4,7.2c-1.1,3.9-2.1,7.6-4.7,11c-4.9,6.4-9.1,7.7-16.6,5.1c-4.1-1.4-6.2-3.9-9.4-6.1
				c-1.6-1.1-2.7-2.5-4.5-3c-3-0.9-4.6-0.2-6.3,2.5c-1.5,2.5-2.1,5.6-2.8,8.6c-0.8,3.6-2.3,7.4-4.3,10.5c-5,7.9-10.1,10.9-18.2,5.5
				c-2.9-1.9-3.6-3.6-5.3-6.3c-1.6-2.5,0-5.1,2-7c2-1.8,4.8-2,6.8-0.2c1.6,1.5,2.3,3.2,4.1,4.4c0.9,0.6,1.3,0.4,1.9-0.7
				c1.4-2.3,1.9-4.8,2.6-7.5c1.2-5,2-9.1,5.3-13.7c5.5-7.7,9.9-9.8,19.3-6.8c3.1,1,4.5,2.8,6.8,4.5c1.9,1.3,3.5,3,5.6,3.7
				c2.2,0.7,3.3,0.3,4.4-1.7c0.9-1.6,1.1-3.5,1.6-5.4c1.2-4.2,1.3-8.2,4-12c4.7-6.9,9.5-8.6,17.5-5.5c5.8,2.2,9.6,6.4,13.4,11
				C468.4,667.8,468.1,671.5,465.3,673.9z"/>
			<path class="st2" d="M504.2,495.5c-1.6,1.8-1,2.3,1.1,3.4c1.7,0.9,4.3,1.6,6.3,2.3c2.4,0.9,4.4,2.5,5,5.1c0.5,2.3-0.2,4-2.2,5.2
				c-1.4,0.9-3,0.6-4.6,0.1c-1.4-0.4-3-0.9-4.4-1.5c-2.9-1.2-5.8-2.5-8.2-4.5c-5.6-4.7-7.7-8.9-4.5-15.4c2.1-4.3,5.3-5.4,8.7-7.9
				c2.4-1.8,5.1-2.7,6.7-5.3c1.9-3.1,1-5.1-1.7-7.5c-1.9-1.8-5.1-3-7.5-4.5c-3.1-2-6.7-4.2-8.9-7c-4.4-5.7-5.6-11.1-2-17.3
				c1.7-2.9,4.6-4,7.1-5.9c1.4-1.1,3.1-1.8,4.1-3.4c1.3-1.9,0.9-3.1-0.9-4.7c-2.4-2.1-6.4-3.6-9.1-5c-3.2-1.6-6-3.8-4.8-7.4
				c1.1-3.4,4.3-3.8,7.8-2.5c5.2,1.9,10.8,4.6,15,8.8c5.7,5.9,7.1,10.7,2.9,17.8c-2,3.4-4.8,4.4-7.6,6.6c-1.4,1.1-2.9,1.6-3.9,3
				c-1.2,1.9-1,2.9,0.7,4.6c1.6,1.7,4,2.9,6.1,4.1c3.4,1.9,7,3.7,9.7,6.6c6.1,6.5,7.9,11.5,4.1,19.4c-2.2,4.6-5.6,6-9.2,8.7
				C508,492.9,505.8,493.7,504.2,495.5z"/>
			<path class="st2" d="M148.3,461.1c-1.9,2.2-2.7,4.2-1.1,6.6c1.6,2.4,3.9,3.4,6.4,4.7c2.9,1.5,5.8,2.7,8.2,5.2
				c2.4,2.6,3.7,5.1,3.1,8.9c-0.4,2.9-2,5.6-4.2,7.8c-2.8,2.8-6.3,4.9-9.8,6.7c-1.2,0.6-2.5,1.3-3.8,1.7c-3,0.9-6.3,0.7-6.8-3.1
				c-0.4-3,1.9-5.6,4.6-7c2.2-1.1,5.3-2.3,7.3-3.7c1.1-0.8,1.3-1.3,0.6-2.2c-1.6-1.9-3.8-2.5-6-3.8c-4.4-2.6-8.2-4.1-11.2-9
				c-3-4.8-1.8-11.5,1.8-16.3c3.2-4.3,7.7-7.4,12.2-10.4c2.4-1.6,4.8-3.3,6.4-5.6c0.8-1.1,0.7-1.9,0-2.8c-1.5-2-3.9-2.5-5.8-3.9
				c-3.1-2.2-6.4-3.4-8-7.2c-2.7-6.5-1-11.8,4.1-17.1c4.1-4.2,10.4-7.4,16-9.4c2.7-1,5.6-0.6,7,1.8c1.6,2.7,0.3,5.2-1.9,7.1
				c-1.4,1.2-3.7,2-5.4,2.7c-2.6,1.1-5.3,2.7-7.2,4.5c-1.5,1.5-1.8,2.5-0.7,4.1c1.4,2,3.9,2.4,5.8,3.8c2.8,2.1,6.3,3.3,7.8,6.8
				c2.7,6.3,0.7,11.3-3.7,16.7c-2.9,3.6-7.8,6.4-11.7,9C151,458.8,149.3,460,148.3,461.1z"/>
			<path class="st2" d="M132.1,282.9c-0.2,0.8-0.4,1.5-0.7,2.2c-0.3,0.6-0.6,1.2-1,1.6c-0.3,0.4-0.7,0.7-1,1
				c-0.5,0.4-1.1,0.7-1.6,0.9c-0.7,0.2-1.4,0.4-2,0.4c-1.1,0.1-2.2,0-3.5-0.2c0,0-0.1,0-0.4-0.1c-0.3-0.1-0.8-0.1-1.2,0
				c-0.6,0.1-1.2,0.5-1.6,1.1c-0.6,0.9-0.5,2.1,0.3,3.1c0.1,0.1,0.2,0.2,0.2,0.3c0.2,0.4,0.5,0.7,0.6,1.1c0.2,0.5,0.3,1.1,0.3,1.6
				c0,0.5,0,0.9-0.1,1.4c-0.1,0.5-0.2,1-0.5,1.6c-0.2,0.4-0.4,0.8-0.7,1.1c-0.3,0.3-0.5,0.6-0.8,0.8c-0.3,0.2-0.6,0.4-0.9,0.5
				c-0.4,0.1-0.7,0.2-1,0.2c-0.5,0-0.9,0-1.2,0l-0.3-0.1c-0.3-0.1-0.5-0.1-0.7-0.2c-1-0.4-2.2,0-2.9,1c-0.5,0.9-0.4,2.1,0.3,2.9
				c0.4,0.4,0.7,0.9,1,1.3c0.9,1.3,1.5,2.5,2,3.8c0.4,1.1,0.6,2,0.7,2.9c0,0.9,0,1.7-0.1,2.5c-0.2,1-0.5,1.7-0.8,2.4
				c-0.4,0.9-1,1.7-1.6,2.6c-0.8,1-1.8,2-3.1,2.9c-1.5,1.1-3.2,2-5,2.7c-2,0.7-4.1,1.2-6.2,1.4c-2.1,0.2-4,0.1-5.7-0.2
				c-1.4-0.3-2.6-0.7-3.7-1.2c-1.1-0.5-2.2-1.2-3-1.9c-0.8-0.7-1.5-1.4-2-2.2l-0.4-0.5c-0.5-0.8-1-1.7-1.3-2.7
				c-0.5-1.5-0.9-3.1-1.1-5c-0.1-1.8-0.1-3.8,0.2-6c0.6-0.6,1.2-1.1,1.7-1.7c0.5-0.5,0.8-1.2,0.9-1.9c0-0.7-0.3-1.5-0.7-2
				c-0.5-0.6-1.3-0.9-2.1-0.9h0c-0.7,0-1.4,0.3-1.9,0.8c-1.4,1.4-2.8,2.7-4.2,3.7c-1.4,1-2.9,1.8-4.3,2.3c-1.2,0.4-2.4,0.7-3.5,0.8
				c-1.1,0.1-2.1,0-3.2-0.2c-0.8-0.2-1.8-0.5-2.8-0.9c-1.4-0.7-2.5-1.4-3.6-2.3c-1.3-1.1-2.5-2.5-3.6-3.9c-1.4-2-2.5-4.2-3.5-6.6
				c-0.8-2.2-1.3-4.4-1.5-6.6c-0.2-1.9-0.1-3.8,0.2-5.7c0.3-1.3,0.7-2.6,1.2-3.8c0.5-1,1-1.8,1.5-2.5c0.6-0.8,1.5-1.6,2.4-2.2
				c0.9-0.6,1.9-1.1,3-1.6c1.5-0.5,3.1-0.9,5-1.1c0.8-0.1,1.5-0.1,2.3-0.1h0.3c0.9,0,1.8,0,2.7,0.1c0.7,0,1.6-0.4,2-1.1
				c0.5-0.9,0.4-2-0.3-2.7c-0.6-0.7-1.2-1.4-1.7-2.1c-0.9-1.2-1.5-2.5-2.1-3.9c-0.4-1.1-0.7-2.3-0.8-3.4c-0.1-0.9,0-1.9,0.1-2.8
				c0.2-1,0.5-2,0.9-2.9c0.5-1,1.1-1.9,1.7-2.7c0.8-1,1.8-1.9,3-2.8c1.5-1,2.9-1.7,4.3-2.3c1.5-0.5,3-0.8,4.4-1
				c1.3-0.1,2.5,0,3.8,0.2c1.1,0.2,2.1,0.6,3,1c0.8,0.4,1.7,0.9,2.5,1.6c0.8,0.7,1.4,1.4,2,2.2c0.1,0.1,0.2,0.2,0.2,0.4
				c-0.7,1.1-1.1,2.1-1.4,3.1c-0.7,2.3-0.8,4.8-0.3,7.5c0.1,0.6,0.5,1.2,1,1.5c0.6,0.4,1.3,0.5,1.8,0.4c0.7-0.1,1.3-0.5,1.5-1
				c0.4-0.6,0.4-1.2,0.4-1.7c0-0.3,0-0.5-0.1-0.7c-0.1-1.2,0-2.3,0.1-3.4c0.2-0.8,0.4-1.6,0.7-2.3c0.3-0.7,0.7-1.3,1.3-2
				c0.5-0.6,1.1-1.2,1.8-1.7c0.8-0.6,1.8-1.1,2.7-1.5c1.2-0.4,2.4-0.7,3.5-0.8c1,0,2,0,2.8,0.1c0.7,0.1,1.4,0.4,2.2,0.7
				c0.6,0.3,1.1,0.6,1.5,0.9c0.4,0.3,0.7,0.7,1,1.1c0.3,0.5,0.6,1.1,0.7,1.4c0.3,0.8,0.4,1.5,0.4,2.1l0,0.2v0.2
				c-0.6,3.3-1.1,5.8-1.6,7.9c-0.1,0.2-0.2,0.4-0.2,0.7c0,0.1,0,0.1,0,0.2l0,0.2c-0.2,0.9,0.3,1.8,1,2c0.1,0.1,0.3,0.1,0.4,0.1
				c0.9,0.5,2.2,0.5,3.1-0.5c0.4-0.5,2.2-0.3,3-0.2c0.2,0,0.5,0,0.6,0.1c0.9,0.1,1.4,0.6,1.7,1.1c0.2,0.2,0.3,0.5,0.4,0.7
				c0.3,0.8,0.8,1.8,2,2.1l0.2,0.1c0.1,0.1,0.2,0.1,0.1,0.1c0.4,0.4,0.9,0.6,1.4,0.8c0.2,0.1,0.4,0.2,0.6,0.3c0.7,0.3,1.4,0.8,2,1.2
				c0.7,0.6,1.4,1.4,2.2,2.3c0.7,1,1.2,2,1.7,3.2c0.4,1.2,0.6,2.3,0.8,3.4C132.3,280.7,132.3,281.8,132.1,282.9z"/>
			<path class="st2" d="M496.8,175.1c0,1,0,1.9-0.2,3c-0.3,1.1-0.6,2.1-1.1,3.1c-0.5,0.9-1.1,1.8-1.8,2.6c-0.7,0.7-1.4,1.3-2.1,1.7
				c-0.8,0.5-1.5,0.9-2.2,1.1c-0.7,0.2-1.4,0.3-2.1,0.4c-0.5,0-1.1,0-1.7-0.1c-0.4-0.2-0.9-0.4-1.4-0.6l-0.3-0.1h0
				c-0.7-0.2-1.5-0.1-2.1,0.2c-0.8,0.4-1.4,1-1.7,1.8c-0.6,1.6,0.2,3.3,1.8,4.1c0.2,0.1,0.5,0.2,0.7,0.3c1.1,0.6,2.2,1.3,3,2.1
				c0.7,0.7,1.4,1.5,1.9,2.3c0.6,1,1.1,2,1.5,3.3c0.4,1.4,0.7,2.8,0.8,4.3c0.1,1.8-0.1,3.6-0.4,5.5l-0.1,0.3c-0.5,2-1.2,3.9-2,5.6
				c-0.9,1.6-1.9,3.2-3.1,4.4c-0.9,1-1.9,1.8-2.9,2.5c-0.8,0.5-1.5,0.8-2.2,1.1c-1.8,0.6-3.9,0.9-6.6,1c-3.6,0.1-7.1-0.1-10.4-0.8
				c-2.1-0.5-3.9-1.1-5.4-1.9c-0.8-0.4-1.4-0.9-1.9-1.3c-0.4-0.4-0.7-0.7-0.9-1c-0.2-0.3-0.3-0.5-0.4-0.8c-0.1-0.3-0.1-0.6-0.1-0.8
				c0-0.3,0-0.7,0.1-1.1c0.2-0.7,0.4-1.3,0.7-1.8l0.2-0.4c1.1,0,2.2-0.2,3.4-0.4c1.5-0.3,2.4-1.7,2.1-3.2c-0.1-0.7-0.5-1.3-1.2-1.8
				c-0.6-0.4-1.4-0.5-2-0.4c-0.8,0.2-1.5,0.3-2.2,0.3c-1.1,0-2.2-0.1-3.3-0.3c-1.2-0.3-2.4-0.7-3.5-1.3c-1.1-0.6-2.2-1.4-3.1-2.3
				c-0.9-0.9-1.7-1.8-2.4-2.9c-0.8-1.3-1.3-2.5-1.8-3.8c-0.3-0.8-0.4-1.5-0.5-2.3c-0.2-1.1-1-2.1-2.1-2.5c-0.2-0.1-0.4-0.1-0.8-0.2
				c-1.5-0.1-2.9,0.8-3.3,2.2c-0.1,0.5-0.3,0.9-0.4,1.4l-0.1,0.5c-0.1,0.5-0.3,1.1-0.5,1.6c-0.3,1-0.8,2-1.3,3.1
				c-0.7,1.3-1.6,2.5-2.5,3.6c-0.9,1-2,1.9-3.1,2.7c-1.4,0.9-2.9,1.6-4.5,2.2c-2,0.6-4.1,1-6.3,1.2c-2.5,0.1-5-0.1-7.4-0.6
				c-2.9-0.7-5.6-1.7-8.2-3c-2.1-1.2-4.1-2.6-5.8-4.1c-1.5-1.4-2.9-3-4-4.7c-1-1.6-1.8-3.3-2.5-5.2l-0.1-0.2c-0.3-0.6-0.7-1-1.2-1.4
				c-0.8-0.6-1.9-0.8-2.9-0.6c-0.9,0.2-1.7,0.6-2.2,1.3c-0.5,0.4-0.8,0.9-1,1.4c-0.3,0.9-0.7,1.9-1.2,2.8c-0.6,1.2-1.4,2.2-2.1,3.1
				c-0.9,0.9-1.8,1.7-2.8,2.4c-1.1,0.6-2.2,1.2-3.3,1.5c-1.6,0.5-3.2,0.8-4.8,0.9c-2.2,0.1-4.5-0.1-6.8-0.6
				c-2.6-0.6-5.2-1.5-7.6-2.8c-2.3-1.3-4.3-2.6-6-4.1c-0.8-0.7-1.9-0.8-2.8-0.7c-0.9,0.2-1.6,0.7-2.1,1.4c-2,2.8-3.9,5.2-5.8,7.4
				c-3,3.3-6.2,6.1-9.6,8.3c0,0-0.1,0.1-0.2,0.1l-0.2,0.1c-2.4,1.5-4.7,2.6-7,3.4c-2,0.6-4,1-5.9,1.1c-1.9,0.1-3.8-0.1-5.6-0.5
				c-1.6-0.4-3.2-1-4.8-1.7v-0.6l-1.1,0c-1.9-1-3.6-2.2-4.9-3.4c-0.2-0.2-0.5-0.5-0.7-0.7c-0.3-0.4-0.7-0.7-1-1.1
				c-1-0.9-2.4-1.2-3.4-1.4c-0.5-0.1-1.1-0.1-1.6-0.2l-1.4-0.1c-0.8-0.1-1.7-0.1-2.5-0.1c-1.4,0-2.8,0.1-4.2,0.2
				c-0.6,0.1-1.2,0.1-1.7,0.1c-1.1,0-2.1,0-2.9-0.2c-0.7-0.2-1.3-0.4-1.9-0.7c-0.5-0.3-0.9-0.5-1.3-0.8c-0.8-0.6-1.8-0.8-2.8-0.6
				c-1.2,0.2-2.1,0.9-2.7,2.3c0,0,0,0.1-0.1,0.1c-0.5,0.9-1,1.7-1.6,2.3c-0.7,0.7-1.3,1.2-2,1.7c-0.9,0.6-1.9,1-2.8,1.3
				c-1,0.3-2.1,0.5-3.1,0.6c-1.2,0-2.3-0.1-3.3-0.3c-1.2-0.3-2.1-0.7-3.1-1.2c-0.2-0.1-0.4-0.1-0.6-0.2c-0.1,0-0.1-0.1-0.2-0.1
				c-0.3-0.1-0.6-0.2-0.8-0.2c-0.9-0.1-1.8,0.3-2.5,0.9c-0.6,0.6-0.9,1.3-0.9,2.1c0,1.8-0.1,3.4-0.4,4.8c-0.3,1.2-0.7,2.4-1.2,3.4
				c-0.6,1-1.2,1.8-1.8,2.6c-0.8,0.8-1.7,1.6-2.6,2.2c-1.2,0.7-2.5,1.4-4,1.9c-2.4,0.8-5.1,1.2-7.9,1.4c-3.8,0.1-7.7-0.2-11.5-1
				c-3.4-0.8-6.3-1.8-8.7-3c-0.2-0.1-0.3-0.2-0.5-0.3c-0.5-0.3-1.3-0.6-2.3-0.4c-1.1,0.2-2,0.9-2.5,2c-1.2,2.9-2.5,5.7-3.9,8.5
				c-2.1,4-4.3,7.3-6.7,9.9c-1.5,1.6-3.2,3.1-5,4.2c-1.8,1.2-3.8,2.1-5.8,2.8c-2.4,0.8-4.9,1.2-7.2,1.4c-1.6,0-3.2-0.1-4.7-0.4
				c-1.5-0.4-2.8-0.8-4-1.4c-1.2-0.6-2.3-1.4-3.3-2.2c-0.8-0.8-1.6-1.6-2.1-2.4c-0.5-0.8-0.9-1.6-1.1-2.3c-0.2-0.7-0.3-1.3-0.4-2
				c0-0.8,0-1.5,0.2-2.1c0.2-0.8,0.5-1.6,0.9-2.4c0.5-0.9,1.2-1.8,1.9-2.6c0.7-0.7,1.4-1.4,2.4-2.2c0.7-0.6,1.2-1.5,1.2-2.5
				c0.1-1-0.2-1.9-0.8-2.6c-0.7-0.8-1.7-1.3-2.7-1.3c-0.8,0-1.6,0.3-2.3,0.8c-1.2,0.9-2.4,2-3.6,3.4c-0.1,0.1-0.2,0.3-0.3,0.4
				c-0.5-0.1-1-0.1-1.4-0.2c-1.3-0.3-2.4-0.7-3.5-1.3c-0.9-0.5-1.7-1.1-2.4-1.7c-0.6-0.6-1.2-1.2-1.7-2c-0.5-0.9-1-1.9-1.4-2.9
				c-0.4-1.2-0.6-2.4-0.6-3.6c0-1.3,0.1-2.5,0.3-3.6c0.3-1.3,0.7-2.4,1.2-3.5c0.6-1.1,1.3-2.1,2.1-3c0.8-0.8,1.6-1.5,2.6-2.2
				c1.2-0.7,2.4-1.3,3.6-1.7c0.9-0.3,1.8-0.5,2.8-0.6c0.9-0.1,1.7-0.7,2.1-1.3c0.7-1,0.8-2.4,0.2-3.5c-0.4-0.6-0.7-1.2-1-1.9
				l-0.2-0.4c-0.4-0.8-0.7-1.6-0.9-2.3c-0.4-1.3-0.7-2.6-0.7-3.8c0-1,0-2,0.2-2.8c0.1-0.6,0.4-1.1,0.6-1.7c0.3-0.5,0.6-0.9,0.8-1.1
				c0.4-0.4,0.7-0.7,1-0.8c0.5-0.3,1.1-0.6,1.6-0.8c0.9-0.3,1.8-0.4,2.8-0.5c0.3,0,0.6,0,0.9,0c0.5,0.5,1.3,0.9,2.1,1
				c0.9,0.1,1.8-0.3,2.5-0.9c0.7-0.6,1-1.4,1-2.2c0-1.3,0.1-2.7,0.4-4c0.3-1.1,0.6-2,1-2.8c0.4-0.8,0.9-1.5,1.4-2.1
				c0.7-0.7,1.5-1.4,2.3-1.9c0.9-0.6,1.9-1,3-1.4c1.3-0.4,2.7-0.7,4-0.8c1.6-0.1,3.1,0.1,4.5,0.3c1.4,0.3,2.7,0.8,4,1.5
				c0.5,0.3,1,0.5,1.5,0.9c0.2,0.1,0.4,0.2,0.6,0.3c0.3,0.3,0.6,0.4,1,0.6c1.7,0.6,3.6-0.3,4.2-2c0.7-2,1.5-3.7,2.3-5.3
				c1.3-2.4,2.6-4.4,4.2-6.2c1.2-1.3,2.6-2.4,3.9-3.3c1.5-1,3.1-1.7,4.7-2.3c1.8-0.5,3.8-0.9,5.7-1c2.7-0.1,5.5,0.1,8.3,0.7
				c0.5,0.1,0.8,0.2,1.1,0.3c0.3,0.1,0.6,0.3,0.9,0.4c0.9,0.5,1.8,1,2.7,1.5c1.2,0.7,2.4,1.3,3.6,2c0.9,0.5,1.8,0.9,2.9,1.2
				c0.5,0.1,1.1,0.3,1.7,0.3c1,0,1.8-0.3,2.6-0.5c0.9-0.4,1.8-1,2.9-1.9c1-0.9,1.8-1.8,2.7-2.9c0.6-0.8,1.3-1.6,1.9-2.4
				c0.9-1.2,1.9-2.3,2.8-3.4c0.7-0.8,1.6-1.7,2.6-2.3c0.6-0.3,1.2-0.6,1.9-0.9c1.5-0.4,3-0.7,4.6-0.8c2-0.1,3.9,0.1,5.8,0.5
				c2.1,0.5,4.2,1.3,6.1,2.3c2.1,1.1,3.9,2.4,5.5,3.8c0.8,0.7,2,0.8,3,0.4c0.2,0,0.4,0,0.6,0c0.8-0.2,1.8-0.7,2.4-1.6
				c2.1-3.9,4.6-7.5,7.4-10.7c2.9-3.1,6.1-5.8,9.6-8.1c3.1-1.9,6.3-3.5,9.5-4.6c3-0.9,6-1.5,8.9-1.7c2.4-0.1,4.9,0.1,7.2,0.6
				c2,0.5,3.8,1.2,5.5,2c1.7,0.9,3.4,2.1,4.9,3.5c1.6,1.5,3,3.2,4.4,5.2l0,0.5l0.4,0.2c0.7,1.1,1.3,2.2,1.8,3.2
				c0.4,0.9,1.3,1.5,2.2,1.7c1,0.2,1.9-0.1,2.6-0.7c0.8-0.8,1.7-1.5,2.5-2.3c1.9-1.8,3.8-3.6,5.9-5c1.2-0.8,2.3-1.3,3.4-1.7
				c1.2-0.4,2.5-0.6,3.9-0.7c0.8,0,1.6,0.1,2.3,0.2c1.4,0.3,2.8,0.9,4.4,1.7c1.3,0.7,2.7,1.5,4,2.3l1.5,0.9c1.7,1,3.6,2.1,5.6,2.7
				c0.9,0.3,1.8,0.4,2.7,0.4c0.6,0,1.3,0,2-0.4c0.5-0.2,0.8-0.5,1.1-0.7c0.7-0.5,1.3-1.1,1.9-1.7c0.5-0.5,1-1,1.4-1.6l0.7-0.7
				c0.4-0.5,0.9-0.9,1.3-1.3c0.7-0.4,1.5-0.7,2-0.9c1.2-0.4,2.5-0.6,3.7-0.7c1.7-0.1,3.4,0.1,5.1,0.4c1.8,0.4,3.6,1,5.3,1.9
				c1.7,0.9,3.3,2,4.7,3.3c1.4,1.3,2.6,2.8,3.7,4.3c0.7,1,1.2,2.1,1.8,3.4c0.3,0.7,0.9,1.3,1.7,1.6c0.8,0.3,1.6,0.2,2.4-0.1
				c0.9-0.1,1.7-0.6,2.3-1.3c1.8-2.5,3.4-4.5,5-6.3c2.7-2.9,5.6-5.4,8.7-7.5c2.8-1.8,5.8-3.2,8.6-4.2c2.8-0.9,5.7-1.4,8.6-1.6
				c2.9-0.1,5.7,0.1,8.3,0.6c1.5,0.4,2.9,0.9,4.2,1.5c1.2,0.6,2.3,1.4,3.3,2.3c0.9,0.8,1.6,1.7,2.2,2.6c0.7,1.1,1.2,2.2,1.6,3.3
				c0.4,1.4,0.7,2.8,0.8,4.3c0,1.4-0.1,2.9-0.4,4.3c-0.3,1.4-0.9,2.8-1.5,4.1c-0.8,1.5-1.8,2.9-3,4.3c0,0-0.1,0.1-0.2,0.2l-0.4,0.5
				c-0.9,0.9-0.8,2.4-0.4,3.3c0.5,1,1.5,1.7,2.6,1.7c2.6,0.1,5.2,0.4,7.8,1c2.8,0.6,5.2,1.4,7.3,2.5c1.3,0.7,2.5,1.5,3.4,2.3
				c0.7,0.7,1.3,1.4,1.8,2.1c0.5,0.8,0.8,1.5,1.1,2.2C496.6,173.2,496.8,174.1,496.8,175.1z"/>
		</g>
	</g>
</g>
<g id="Layer_2">
	<g>
		<g>
			<g>
				<path class="st3" d="M346.8,577.9c-0.1,12.1-11.7,19.2-23,18.5c-11.5-0.7-23.3-8-23.5-20.8c-0.2-12.7,12.3-19.6,23.9-19.4
					C335.7,557.5,346.9,565.4,346.8,577.9z"/>
				<path class="st3" d="M348.5,505.8c-0.1,13.4-10.8,20.3-23.1,19.7c-12.4-0.6-22.4-9.2-22.4-21.7c0.1-12.7,11.5-20.9,23.5-20.2
					C338.6,484.4,348.5,493.5,348.5,505.8z"/>
			</g>
		</g>
		<path class="st3" d="M382.9,56.5c-35.5-19-75.1-29-112.1-29c-15.2,0-30,1.7-43.9,5.1c-56.2,14-99.3,74-112.9,126.2
			c-4,15.5-5.6,32.2-7.1,48.4c-0.7,7.8-1.5,15.7-2.5,23.5c-0.8,5.7-1.6,11.3-2.8,16.9c0.9-0.2,1.7-0.4,2.6-0.5c1,0,2,0,2.8,0.1
			c0.7,0.1,1.4,0.4,2.2,0.7c0.6,0.3,1.1,0.6,1.5,0.9c0.4,0.3,0.7,0.7,1,1.1c0.3,0.5,0.6,1.1,0.7,1.4c0.3,0.8,0.4,1.5,0.4,2.1l0,0.2
			v0.2c-0.6,3.3-1.1,5.8-1.6,7.9c-0.1,0.2-0.2,0.4-0.2,0.7c0,0.1,0,0.1,0,0.2l0,0.2c-0.2,0.9,0.3,1.8,1,2c0.1,0.1,0.3,0.1,0.4,0.1
			c0.9,0.5,2.2,0.5,3.1-0.5c0.4-0.5,2.2-0.3,3-0.2c0.2,0,0.5,0,0.6,0.1c0.9,0.1,1.4,0.6,1.7,1.1c0.2,0.2,0.3,0.5,0.4,0.7
			c0.3,0.8,0.8,1.8,2,2.1l0.2,0.1c0.1,0.1,0.2,0.1,0.1,0.1c0.4,0.4,0.9,0.6,1.4,0.8c0.2,0.1,0.4,0.2,0.6,0.3
			c0.4,0.2,0.8,0.4,1.1,0.6c2.3-1.6,4.8-3.4,7.3-5.5c3-2.5,11.1-9,16.1-16c3.2-4.5,5-8.8,6.1-13.4c-0.2,0.2-0.4,0.4-0.6,0.7
			c-0.1,0.1-0.2,0.3-0.3,0.4c-0.5-0.1-1-0.1-1.4-0.2c-1.3-0.3-2.4-0.7-3.5-1.3c-0.9-0.5-1.7-1.1-2.4-1.7c-0.6-0.6-1.2-1.2-1.7-2
			c-0.5-0.9-1-1.9-1.4-2.9c-0.4-1.2-0.6-2.4-0.6-3.6c0-1.3,0.1-2.5,0.3-3.6c0.3-1.3,0.7-2.4,1.2-3.5c0.6-1.1,1.3-2.1,2.1-3
			c0.8-0.8,1.6-1.5,2.6-2.2c1.2-0.7,2.4-1.3,3.6-1.7c0.9-0.3,1.8-0.5,2.8-0.6c0.4-0.1,0.8-0.2,1.2-0.5c0.1-1.8,0.2-3.7,0.4-5.6
			c-0.1-0.2-0.2-0.4-0.3-0.6l-0.2-0.4c-0.4-0.8-0.7-1.6-0.9-2.3c-0.4-1.3-0.7-2.6-0.7-3.8c0-1,0-2,0.2-2.8c0.1-0.6,0.4-1.1,0.6-1.7
			c0.3-0.5,0.6-0.9,0.8-1.1c0.4-0.4,0.7-0.7,1-0.8c0.5-0.3,1.1-0.6,1.6-0.8c0.1,0,0.2-0.1,0.3-0.1c0.5-2.1,1.1-4.4,1.8-6.7
			c2.4-7.9,5.2-14.1,7-17.7c-13.3-19.5,7.6-47.9,20-62.7c1.7-2,4.7,0.5,3.1,2.5c-11.1,14.4-27.5,37.3-21.2,56.6
			c8.9-15.6,21.9-29.7,34.6-40.8c1.7-1.5,4.3,1.3,2.7,2.9c-10.5,10.4-20.9,21.8-28.9,34.2c-6.5,10.2-11.4,21-13.4,32.4
			c0.8,0,1.5-0.4,2.1-0.9c0.7-0.6,1-1.4,1-2.2c0-1.3,0.1-2.7,0.4-4c0.3-1.1,0.6-2,1-2.8c0.4-0.8,0.9-1.5,1.4-2.1
			c0.7-0.7,1.5-1.4,2.3-1.9c0.9-0.6,1.9-1,3-1.4c1.3-0.4,2.7-0.7,4-0.8c1.6-0.1,3.1,0.1,4.5,0.3c1.4,0.3,2.7,0.8,4,1.5
			c0.5,0.3,1,0.5,1.5,0.9c0.2,0.1,0.4,0.2,0.6,0.3c0.3,0.3,0.6,0.4,1,0.6c1.7,0.6,3.6-0.3,4.2-2c0.7-2,1.5-3.7,2.3-5.3
			c1.3-2.4,2.6-4.4,4.2-6.2c1.2-1.3,2.6-2.4,3.9-3.3c1.5-1,3.1-1.7,4.7-2.3c1.8-0.5,3.8-0.9,5.7-1c2.7-0.1,5.5,0.1,8.3,0.7
			c0.5,0.1,0.8,0.2,1.1,0.3c0.3,0.1,0.6,0.3,0.9,0.4c0.9,0.5,1.8,1,2.7,1.5c1.2,0.7,2.4,1.3,3.6,2c0.9,0.5,1.8,0.9,2.9,1.2
			c0.5,0.1,1.1,0.3,1.7,0.3c1,0,1.8-0.3,2.6-0.5c0.9-0.4,1.8-1,2.9-1.9c1-0.9,1.8-1.8,2.7-2.9c0.6-0.8,1.3-1.6,1.9-2.4
			c0.9-1.2,1.9-2.3,2.8-3.4c0.7-0.8,1.6-1.7,2.6-2.3c0.6-0.3,1.2-0.6,1.9-0.9c1.5-0.4,3-0.7,4.6-0.8c2-0.1,3.9,0.1,5.8,0.5
			c2.1,0.5,4.2,1.3,6.1,2.3c2.1,1.1,3.9,2.4,5.5,3.8c0.8,0.7,2,0.8,3,0.4c0.2,0,0.4,0,0.6,0c0.8-0.2,1.8-0.7,2.4-1.6
			c2.1-3.9,4.6-7.5,7.4-10.7c2.9-3.1,6.1-5.8,9.6-8.1c3.1-1.9,6.3-3.5,9.5-4.6c3-0.9,6-1.5,8.9-1.7c2.4-0.1,4.9,0.1,7.2,0.6
			c2,0.5,3.8,1.2,5.5,2c1.7,0.9,3.4,2.1,4.9,3.5c1.6,1.5,3,3.2,4.4,5.2l0,0.5l0.4,0.2c0.7,1.1,1.3,2.2,1.8,3.2
			c0.4,0.9,1.3,1.5,2.2,1.7c1,0.2,1.9-0.1,2.6-0.7c0.8-0.8,1.7-1.5,2.5-2.3c1.9-1.8,3.8-3.6,5.9-5c1.2-0.8,2.3-1.3,3.4-1.7
			c1.2-0.4,2.5-0.6,3.9-0.7c0.8,0,1.6,0.1,2.3,0.2c1.4,0.3,2.8,0.9,4.4,1.7c1.3,0.7,2.7,1.5,4,2.3l1.5,0.9c1.7,1,3.6,2.1,5.6,2.7
			c0.9,0.3,1.8,0.4,2.7,0.4c0.6,0,1.3,0,2-0.4c0.5-0.2,0.8-0.5,1.1-0.7c0.7-0.5,1.3-1.1,1.9-1.7c0.5-0.5,1-1,1.4-1.6l0.7-0.7
			c0.4-0.5,0.9-0.9,1.3-1.3c0.7-0.4,1.5-0.7,2-0.9c1.2-0.4,2.5-0.6,3.7-0.7c1.7-0.1,3.4,0.1,5.1,0.4c1.8,0.4,3.6,1,5.3,1.9
			c1.7,0.9,3.3,2,4.7,3.3c1.4,1.3,2.6,2.8,3.7,4.3c0.7,1,1.2,2.1,1.8,3.4c0.3,0.7,0.9,1.3,1.7,1.6c0.8,0.3,1.6,0.2,2.4-0.1
			c0.9-0.1,1.7-0.6,2.3-1.3c1.8-2.5,3.4-4.5,5-6.3c2.7-2.9,5.6-5.4,8.7-7.5c2.8-1.8,5.8-3.2,8.6-4.2c2.5-0.8,5.1-1.3,7.8-1.5
			C447.6,111,425.8,79.5,382.9,56.5z"/>
	</g>
</g>
</svg>
